<?xml version="1.0" encoding="UTF-8" standalone="no"?>
<svg
   xmlns:dc="http://purl.org/dc/elements/1.1/"
   xmlns:cc="http://creativecommons.org/ns#"
   xmlns:rdf="http://www.w3.org/1999/02/22-rdf-syntax-ns#"
   xmlns:svg="http://www.w3.org/2000/svg"
   xmlns="http://www.w3.org/2000/svg"
   xmlns:sodipodi="http://sodipodi.sourceforge.net/DTD/sodipodi-0.dtd"
   xmlns:inkscape="http://www.inkscape.org/namespaces/inkscape"
   version="1.1"
   viewBox="0 0 100 100"
   id="svg18"
   sodipodi:docname="icoblog.svg"
   inkscape:version="0.92.5 (2060ec1f9f, 2020-04-08)">
  <metadata
     id="metadata24">
    <rdf:RDF>
      <cc:Work
         rdf:about="">
        <dc:format>image/svg+xml</dc:format>
        <dc:type
           rdf:resource="http://purl.org/dc/dcmitype/StillImage" />
      </cc:Work>
    </rdf:RDF>
  </metadata>
  <defs
     id="defs22" />
  <sodipodi:namedview
     pagecolor="#ffffff"
     bordercolor="#666666"
     borderopacity="1"
     objecttolerance="10"
     gridtolerance="10"
     guidetolerance="10"
     inkscape:pageopacity="0"
     inkscape:pageshadow="2"
     inkscape:window-width="1366"
     inkscape:window-height="744"
     id="namedview20"
     showgrid="false"
     inkscape:zoom="6.675088"
     inkscape:cx="49.014732"
     inkscape:cy="31.137257"
     inkscape:window-x="0"
     inkscape:window-y="0"
     inkscape:window-maximized="1"
     inkscape:current-layer="svg18" />
  <circle
     style="fill:#000000;fill-opacity:1"
     id="circle2"
     r="45.668999"
     cy="50.040024"
     cx="50" />
  <g
     id="g14"
     transform="matrix(0.82431,0,0,0.82431,11.917,-767.55)">
    <rect
       style="fill:#ffffff"
       id="rect4"
       ry="1.2264"
       height="2.4528"
       width="31.649"
       y="1013.1"
       x="14.38" />
    <rect
       style="fill:#ffffff"
       id="rect6"
       ry="1.1233"
       height="38.279999"
       width="13.826"
       y="804.81"
       x="541.40002"
       transform="matrix(0.86603,0.5,-0.5,0.86603,0,0)" />
    <path
       style="fill:#ffffff"
       inkscape:connector-curvature="0"
       id="path8"
       d="m 47.249,1014.8 c -0.37998,-0.2194 -0.24398,-1.3056 -0.24398,-1.3056 l 0.21428,-2.0994 0.21435,-2.0995 0.21428,-2.0993 0.21432,-2.0994 0.21428,-2.0994 0.21435,-2.0994 0.21428,-2.0994 1.4967,0.8641 1.4967,0.8641 1.4967,0.8641 1.4967,0.8641 1.4967,0.8641 1.4967,0.8641 1.4967,0.8641 1.4967,0.8641 -1.711,1.2353 -1.711,1.2353 -1.711,1.2353 -1.711,1.2353 -1.711,1.2353 -1.711,1.2353 -1.711,1.2353 c 0,0 -0.87272,0.6609 -1.2527,0.4415 z" />
    <rect
       style="fill:#252525"
       id="rect10"
       ry="0"
       height="1.4942"
       width="14.496"
       y="839.04999"
       x="541.06"
       transform="matrix(0.86603,0.5,-0.5,0.86603,0,0)" />
    <rect
       style="fill:#252525"
       id="rect12"
       ry="0"
       height="1.4942"
       width="14.496"
       y="807.37"
       x="541.16998"
       transform="matrix(0.86603,0.5,-0.5,0.86603,0,0)" />
  </g>
</svg>
