<?xml version="1.0" encoding="UTF-8" standalone="no"?>
<!-- Created with Inkscape (http://www.inkscape.org/) -->

<svg
   xmlns:dc="http://purl.org/dc/elements/1.1/"
   xmlns:cc="http://creativecommons.org/ns#"
   xmlns:rdf="http://www.w3.org/1999/02/22-rdf-syntax-ns#"
   xmlns:svg="http://www.w3.org/2000/svg"
   xmlns="http://www.w3.org/2000/svg"
   xmlns:sodipodi="http://sodipodi.sourceforge.net/DTD/sodipodi-0.dtd"
   xmlns:inkscape="http://www.inkscape.org/namespaces/inkscape"
   width="210mm"
   height="297mm"
   viewBox="0 0 210 297"
   version="1.1"
   id="svg1003"
   inkscape:version="0.92.5 (2060ec1f9f, 2020-04-08)"
   sodipodi:docname="icoinsta.svg">
  <defs
     id="defs997" />
  <sodipodi:namedview
     id="base"
     pagecolor="#ffffff"
     bordercolor="#666666"
     borderopacity="1.0"
     inkscape:pageopacity="0.0"
     inkscape:pageshadow="2"
     inkscape:zoom="3.959798"
     inkscape:cx="358.07613"
     inkscape:cy="689.3569"
     inkscape:document-units="mm"
     inkscape:current-layer="layer1"
     showgrid="false"
     inkscape:window-width="796"
     inkscape:window-height="741"
     inkscape:window-x="683"
     inkscape:window-y="0"
     inkscape:window-maximized="0" />
  <metadata
     id="metadata1000">
    <rdf:RDF>
      <cc:Work
         rdf:about="">
        <dc:format>image/svg+xml</dc:format>
        <dc:type
           rdf:resource="http://purl.org/dc/dcmitype/StillImage" />
        <dc:title></dc:title>
      </cc:Work>
    </rdf:RDF>
  </metadata>
  <g
     inkscape:label="Capa 1"
     inkscape:groupmode="layer"
     id="layer1">
    <path
       inkscape:connector-curvature="0"
       id="path508"
       style="fill:#040606;fill-opacity:1;fill-rule:nonzero;stroke:none;stroke-width:0.03527778"
       d="m 92.287829,105.63502 c 0,2.84868 -2.309282,5.15796 -5.157963,5.15796 -2.84868,0 -5.157964,-2.30928 -5.157964,-5.15796 0,-2.84903 2.309284,-5.15797 5.157964,-5.15797 2.848681,0 5.157963,2.30894 5.157963,5.15797" />
    <path
       inkscape:connector-curvature="0"
       id="path576"
       style="fill:#ffffff;fill-opacity:1;fill-rule:nonzero;stroke:none;stroke-width:0.03527778"
       d="m 88.730772,103.68345 c -0.195439,0 -0.354542,0.15875 -0.354542,0.35454 0,0.1958 0.159103,0.3549 0.354542,0.3549 0.196144,0 0.354894,-0.1591 0.354894,-0.3549 0,-0.19579 -0.15875,-0.35454 -0.354894,-0.35454" />
    <path
       inkscape:connector-curvature="0"
       id="path578"
       style="fill:#ffffff;fill-opacity:1;fill-rule:nonzero;stroke:none;stroke-width:0.03527778"
       d="m 87.154561,106.58187 c -0.525992,0 -0.953912,-0.42827 -0.953912,-0.95426 0,-0.52599 0.42792,-0.95391 0.953912,-0.95391 0.526344,0 0.954263,0.42792 0.954263,0.95391 0,0.52599 -0.427919,0.95426 -0.954263,0.95426 z m 0,-2.44369 c -0.821267,0 -1.489075,0.66816 -1.489075,1.48943 0,0.82127 0.667808,1.48943 1.489075,1.48943 0.821619,0 1.489427,-0.66816 1.489427,-1.48943 0,-0.82127 -0.667808,-1.48943 -1.489427,-1.48943" />
    <path
       inkscape:connector-curvature="0"
       id="path580"
       style="fill:#ffffff;fill-opacity:1;fill-rule:nonzero;stroke:none;stroke-width:0.03527778"
       d="m 85.922308,103.17263 c -0.687917,0 -1.247422,0.55951 -1.247422,1.24777 v 2.41442 c 0,0.68827 0.559505,1.24777 1.247422,1.24777 h 2.414764 c 0.687916,0 1.247775,-0.5595 1.247775,-1.24777 v -2.41442 c 0,-0.68826 -0.559859,-1.24777 -1.247775,-1.24777 z m 2.414764,5.47899 h -2.414764 c -1.001536,0 -1.816453,-0.81492 -1.816453,-1.8168 v -2.41442 c 0,-1.00188 0.814917,-1.8168 1.816453,-1.8168 h 2.414764 c 1.001889,0 1.816452,0.81492 1.816452,1.8168 v 2.41442 c 0,1.00188 -0.814563,1.8168 -1.816452,1.8168" />
  </g>
</svg>
