<?xml version="1.0" encoding="UTF-8" standalone="no"?>
<!-- Created with Inkscape (http://www.inkscape.org/) -->

<svg
   xmlns:dc="http://purl.org/dc/elements/1.1/"
   xmlns:cc="http://creativecommons.org/ns#"
   xmlns:rdf="http://www.w3.org/1999/02/22-rdf-syntax-ns#"
   xmlns:svg="http://www.w3.org/2000/svg"
   xmlns="http://www.w3.org/2000/svg"
   xmlns:sodipodi="http://sodipodi.sourceforge.net/DTD/sodipodi-0.dtd"
   xmlns:inkscape="http://www.inkscape.org/namespaces/inkscape"
   width="210mm"
   height="297mm"
   viewBox="0 0 210 297"
   version="1.1"
   id="svg1003"
   inkscape:version="0.92.5 (2060ec1f9f, 2020-04-08)"
   sodipodi:docname="icotwitter.svg">
  <defs
     id="defs997" />
  <sodipodi:namedview
     id="base"
     pagecolor="#ffffff"
     bordercolor="#666666"
     borderopacity="1.0"
     inkscape:pageopacity="0.0"
     inkscape:pageshadow="2"
     inkscape:zoom="3.959798"
     inkscape:cx="358.07613"
     inkscape:cy="689.3569"
     inkscape:document-units="mm"
     inkscape:current-layer="layer1"
     showgrid="false"
     inkscape:window-width="796"
     inkscape:window-height="741"
     inkscape:window-x="683"
     inkscape:window-y="0"
     inkscape:window-maximized="0" />
  <metadata
     id="metadata1000">
    <rdf:RDF>
      <cc:Work
         rdf:about="">
        <dc:format>image/svg+xml</dc:format>
        <dc:type
           rdf:resource="http://purl.org/dc/dcmitype/StillImage" />
        <dc:title></dc:title>
      </cc:Work>
    </rdf:RDF>
  </metadata>
  <g
     inkscape:label="Capa 1"
     inkscape:groupmode="layer"
     id="layer1">
    <path
       inkscape:connector-curvature="0"
       id="path576"
       style="fill:#ffffff;fill-opacity:1;fill-rule:nonzero;stroke:none;stroke-width:0.03527778"
       d="m 88.730772,103.68345 c -0.195439,0 -0.354542,0.15875 -0.354542,0.35454 0,0.1958 0.159103,0.3549 0.354542,0.3549 0.196144,0 0.354894,-0.1591 0.354894,-0.3549 0,-0.19579 -0.15875,-0.35454 -0.354894,-0.35454" />
    <path
       inkscape:connector-curvature="0"
       id="path578"
       style="fill:#ffffff;fill-opacity:1;fill-rule:nonzero;stroke:none;stroke-width:0.03527778"
       d="m 87.154561,106.58187 c -0.525992,0 -0.953912,-0.42827 -0.953912,-0.95426 0,-0.52599 0.42792,-0.95391 0.953912,-0.95391 0.526344,0 0.954263,0.42792 0.954263,0.95391 0,0.52599 -0.427919,0.95426 -0.954263,0.95426 z m 0,-2.44369 c -0.821267,0 -1.489075,0.66816 -1.489075,1.48943 0,0.82127 0.667808,1.48943 1.489075,1.48943 0.821619,0 1.489427,-0.66816 1.489427,-1.48943 0,-0.82127 -0.667808,-1.48943 -1.489427,-1.48943" />
    <path
       inkscape:connector-curvature="0"
       id="path580"
       style="fill:#ffffff;fill-opacity:1;fill-rule:nonzero;stroke:none;stroke-width:0.03527778"
       d="m 85.922308,103.17263 c -0.687917,0 -1.247422,0.55951 -1.247422,1.24777 v 2.41442 c 0,0.68827 0.559505,1.24777 1.247422,1.24777 h 2.414764 c 0.687916,0 1.247775,-0.5595 1.247775,-1.24777 v -2.41442 c 0,-0.68826 -0.559859,-1.24777 -1.247775,-1.24777 z m 2.414764,5.47899 h -2.414764 c -1.001536,0 -1.816453,-0.81492 -1.816453,-1.8168 v -2.41442 c 0,-1.00188 0.814917,-1.8168 1.816453,-1.8168 h 2.414764 c 1.001889,0 1.816452,0.81492 1.816452,1.8168 v 2.41442 c 0,1.00188 -0.814563,1.8168 -1.816452,1.8168" />
    <path
       inkscape:connector-curvature="0"
       id="path538"
       style="fill:#040606;fill-opacity:1;fill-rule:nonzero;stroke:none;stroke-width:0.03527778"
       d="m 100.84081,114.65536 c 0,2.84869 -2.309286,5.15797 -5.158319,5.15797 -2.848681,0 -5.158317,-2.30928 -5.158317,-5.15797 0,-2.84903 2.309636,-5.15796 5.158317,-5.15796 2.849033,0 5.158319,2.30893 5.158319,5.15796" />
    <path
       inkscape:connector-curvature="0"
       id="path540"
       style="fill:#ffffff;fill-opacity:1;fill-rule:nonzero;stroke:none;stroke-width:0.03527778"
       d="m 98.532583,112.88795 c -0.178859,0.0808 -0.376414,0.12982 -0.569031,0.16228 0.09137,-0.0155 0.225778,-0.18133 0.279753,-0.24801 0.0822,-0.1023 0.150283,-0.21872 0.188736,-0.34466 l -0.0011,-0.0296 -0.03034,0.003 c -0.215193,0.115 -0.437796,0.19861 -0.674862,0.25788 l -0.04621,-0.012 -0.05891,-0.0603 c -0.09984,-0.085 -0.206375,-0.15134 -0.326672,-0.20038 -0.158045,-0.0646 -0.331259,-0.0917 -0.501297,-0.0808 -0.165806,0.0109 -0.328437,0.0575 -0.475545,0.1344 -0.147461,0.0769 -0.278694,0.18415 -0.383469,0.31327 -0.108303,0.1337 -0.188031,0.29139 -0.228953,0.45861 -0.03951,0.16157 -0.03634,0.32138 -0.01199,0.48437 l -0.02364,0.0272 c -0.926394,-0.13794 -1.694039,-0.4692 -2.31775,-1.17969 -0.02681,-0.031 -0.04163,-0.031 -0.06385,0.002 -0.272698,0.40922 -0.140406,1.06609 0.200377,1.38888 0.04551,0.043 0.09243,0.0861 0.142523,0.12559 -0.0187,0.004 -0.245181,-0.0208 -0.447323,-0.12559 l -0.04339,0.0233 c -0.0021,0.0444 0.0014,0.085 0.0078,0.13299 0.05221,0.41452 0.339373,0.79799 0.732367,0.94721 0.04692,0.0198 0.09807,0.037 0.14852,0.0455 -0.08961,0.0198 -0.181681,0.0335 -0.438503,0.0138 -0.0321,-0.006 -0.0441,0.01 -0.0321,0.0406 0.193322,0.52599 0.609952,0.68262 0.921808,0.77187 0.04163,0.007 0.08361,0.007 0.125589,0.0169 l -0.0078,0.007 c -0.103362,0.15769 -0.462137,0.27516 -0.629354,0.33373 -0.303741,0.10618 -0.634647,0.15381 -0.956028,0.12241 -0.05115,-0.008 -0.06209,-0.007 -0.0762,0 l 0.01482,0.0342 c 0.06526,0.043 0.131586,0.0811 0.19932,0.11818 0.203905,0.10795 0.416277,0.19403 0.63888,0.25541 1.148292,0.31715 2.441928,0.0843 3.30447,-0.77258 0.67698,-0.67275 0.9144,-1.60056 0.9144,-2.52977 0,-0.0363 0.04269,-0.0561 0.06844,-0.0755 0.176388,-0.13229 0.318205,-0.29069 0.449791,-0.46778 0.02928,-0.0395 0.02963,-0.0748 0.02963,-0.0893 v -0.005 h -0.02293" />
  </g>
</svg>
