<?xml version="1.0" encoding="UTF-8" standalone="no"?>
<!-- Created with Inkscape (http://www.inkscape.org/) -->

<svg
   xmlns:dc="http://purl.org/dc/elements/1.1/"
   xmlns:cc="http://creativecommons.org/ns#"
   xmlns:rdf="http://www.w3.org/1999/02/22-rdf-syntax-ns#"
   xmlns:svg="http://www.w3.org/2000/svg"
   xmlns="http://www.w3.org/2000/svg"
   xmlns:sodipodi="http://sodipodi.sourceforge.net/DTD/sodipodi-0.dtd"
   xmlns:inkscape="http://www.inkscape.org/namespaces/inkscape"
   width="210mm"
   height="297mm"
   viewBox="0 0 210 297"
   version="1.1"
   id="svg1003"
   inkscape:version="0.92.5 (2060ec1f9f, 2020-04-08)"
   sodipodi:docname="icoyt.svg">
  <defs
     id="defs997" />
  <sodipodi:namedview
     id="base"
     pagecolor="#ffffff"
     bordercolor="#666666"
     borderopacity="1.0"
     inkscape:pageopacity="0.0"
     inkscape:pageshadow="2"
     inkscape:zoom="3.959798"
     inkscape:cx="336.0103"
     inkscape:cy="693.81676"
     inkscape:document-units="mm"
     inkscape:current-layer="layer1"
     showgrid="false"
     inkscape:window-width="796"
     inkscape:window-height="741"
     inkscape:window-x="683"
     inkscape:window-y="0"
     inkscape:window-maximized="0" />
  <metadata
     id="metadata1000">
    <rdf:RDF>
      <cc:Work
         rdf:about="">
        <dc:format>image/svg+xml</dc:format>
        <dc:type
           rdf:resource="http://purl.org/dc/dcmitype/StillImage" />
        <dc:title></dc:title>
      </cc:Work>
    </rdf:RDF>
  </metadata>
  <g
     inkscape:label="Capa 1"
     inkscape:groupmode="layer"
     id="layer1">
    <path
       inkscape:connector-curvature="0"
       id="path572"
       style="fill:#040606;fill-opacity:1;fill-rule:nonzero;stroke:none;stroke-width:0.03527778"
       d="m 88.679691,110.91345 c 0,2.84896 -2.309283,5.15828 -5.157963,5.15828 -2.848681,0 -5.157964,-2.30932 -5.157964,-5.15828 0,-2.84868 2.309283,-5.158 5.157964,-5.158 2.84868,0 5.157963,2.30932 5.157963,5.158" />
    <path
       inkscape:connector-curvature="0"
       id="path574"
       style="fill:#ffffff;fill-opacity:1;fill-rule:nonzero;stroke:none;stroke-width:0.03527778"
       d="m 84.420605,111.01099 -1.41993,0.70242 c -0.05609,0.0303 -0.245181,-0.01 -0.245181,-0.0733 v -1.44251 c 0,-0.0641 0.1905,-0.10432 0.246239,-0.0724 l 1.359606,0.73974 c 0.05715,0.0324 0.117122,0.11466 0.05927,0.14605 z m 1.862667,-0.84747 c 0,-0.68394 -0.554567,-1.23857 -1.23825,-1.23857 h -3.167591 c -0.684037,0 -1.238603,0.55463 -1.238603,1.23857 v 1.47379 c 0,0.68422 0.554566,1.23889 1.238603,1.23889 h 3.167591 c 0.683683,0 1.23825,-0.55467 1.23825,-1.23889 v -1.47379" />
  </g>
</svg>
